<mxfile host="app.diagrams.net" agent="Mozilla/5.0 (Windows NT 10.0; Win64; x64) AppleWebKit/537.36 (KHTML, like Gecko) Chrome/140.0.0.0 Safari/537.36" version="28.2.1">
  <diagram name="Trang-1" id="WW7IwBH09ARXHrYuIfMa">
    <mxGraphModel dx="1042" dy="570" grid="1" gridSize="10" guides="1" tooltips="1" connect="1" arrows="1" fold="1" page="1" pageScale="1" pageWidth="827" pageHeight="1169" math="0" shadow="0">
      <root>
        <mxCell id="0" />
        <mxCell id="1" parent="0" />
        <mxCell id="7k0oK79ZLyB9uAk5AGmn-1" style="edgeStyle=orthogonalEdgeStyle;rounded=0;orthogonalLoop=1;jettySize=auto;html=1;entryX=0;entryY=0.5;entryDx=0;entryDy=0;endArrow=open;endFill=0;" edge="1" parent="1" source="7k0oK79ZLyB9uAk5AGmn-2" target="7k0oK79ZLyB9uAk5AGmn-5">
          <mxGeometry relative="1" as="geometry" />
        </mxCell>
        <mxCell id="7k0oK79ZLyB9uAk5AGmn-2" value="Student" style="shape=umlActor;verticalLabelPosition=bottom;verticalAlign=top;html=1;outlineConnect=0;" vertex="1" parent="1">
          <mxGeometry x="200" y="200" width="30" height="60" as="geometry" />
        </mxCell>
        <mxCell id="7k0oK79ZLyB9uAk5AGmn-3" value="Billing System" style="shape=umlActor;verticalLabelPosition=bottom;verticalAlign=top;html=1;outlineConnect=0;" vertex="1" parent="1">
          <mxGeometry x="510" y="200" width="30" height="60" as="geometry" />
        </mxCell>
        <mxCell id="7k0oK79ZLyB9uAk5AGmn-4" style="edgeStyle=orthogonalEdgeStyle;rounded=0;orthogonalLoop=1;jettySize=auto;html=1;endArrow=open;endFill=0;" edge="1" parent="1" source="7k0oK79ZLyB9uAk5AGmn-5" target="7k0oK79ZLyB9uAk5AGmn-3">
          <mxGeometry relative="1" as="geometry" />
        </mxCell>
        <mxCell id="7k0oK79ZLyB9uAk5AGmn-5" value="" style="ellipse;whiteSpace=wrap;html=1;" vertex="1" parent="1">
          <mxGeometry x="310" y="190" width="120" height="80" as="geometry" />
        </mxCell>
        <mxCell id="7k0oK79ZLyB9uAk5AGmn-6" value="register for courses" style="text;html=1;align=center;verticalAlign=middle;resizable=0;points=[];autosize=1;strokeColor=none;fillColor=none;" vertex="1" parent="1">
          <mxGeometry x="305" y="270" width="130" height="30" as="geometry" />
        </mxCell>
        <mxCell id="7k0oK79ZLyB9uAk5AGmn-7" style="edgeStyle=orthogonalEdgeStyle;rounded=0;orthogonalLoop=1;jettySize=auto;html=1;entryX=0;entryY=0.5;entryDx=0;entryDy=0;endArrow=open;endFill=0;" edge="1" parent="1" source="7k0oK79ZLyB9uAk5AGmn-8" target="7k0oK79ZLyB9uAk5AGmn-9">
          <mxGeometry relative="1" as="geometry" />
        </mxCell>
        <mxCell id="7k0oK79ZLyB9uAk5AGmn-8" value="Professor" style="shape=umlActor;verticalLabelPosition=bottom;verticalAlign=top;html=1;outlineConnect=0;" vertex="1" parent="1">
          <mxGeometry x="200" y="320" width="30" height="60" as="geometry" />
        </mxCell>
        <mxCell id="7k0oK79ZLyB9uAk5AGmn-9" value="" style="ellipse;whiteSpace=wrap;html=1;" vertex="1" parent="1">
          <mxGeometry x="310" y="310" width="120" height="80" as="geometry" />
        </mxCell>
        <mxCell id="7k0oK79ZLyB9uAk5AGmn-10" value="select courses to teach" style="text;html=1;align=center;verticalAlign=middle;resizable=0;points=[];autosize=1;strokeColor=none;fillColor=none;" vertex="1" parent="1">
          <mxGeometry x="295" y="390" width="150" height="30" as="geometry" />
        </mxCell>
      </root>
    </mxGraphModel>
  </diagram>
</mxfile>
